<svg width="14" height="17" viewBox="0 0 14 17" fill="none" xmlns="http://www.w3.org/2000/svg">
<path d="M11.603 8.69782H11.103V8.81586L11.1558 8.92143L11.603 8.69782ZM12.6007 10.6932L12.8579 11.1219L13.255 10.8837L13.0479 10.4696L12.6007 10.6932ZM11.603 5.37226H12.103V5.1873L11.9827 5.04686L11.603 5.37226ZM6.65345 1.01623L6.42985 0.56902L6.42984 0.569022L6.65345 1.01623ZM6.63849 1.02623L6.46868 1.49651L6.73973 1.59438L6.96029 1.40892L6.63849 1.02623ZM1.99767 5.35587L1.61804 5.03047L1.49767 5.17091V5.35587H1.99767ZM1.99767 8.68143L2.44488 8.90504L2.49767 8.79947V8.68143H1.99767ZM1 10.6768L0.552786 10.4532L0.345719 10.8673L0.742753 11.1055L1 10.6768ZM6.65346 15L6.33337 15.3841L7.10396 16.0263L7.15286 15.0244L6.65346 15ZM6.65429 14.9829L6.33422 14.5988L6.16556 14.7393L6.15488 14.9586L6.65429 14.9829ZM11.1558 8.92143L12.1535 10.9168L13.0479 10.4696L12.0502 8.47422L11.1558 8.92143ZM11.103 5.37226V8.69782H12.103V5.37226H11.103ZM6.87706 1.46345C6.78148 1.51124 6.70694 1.49859 6.704 1.49812C6.69702 1.49702 6.71383 1.49912 6.76068 1.52001C6.85385 1.56157 6.99185 1.64359 7.17387 1.77344C7.53344 2.02993 7.9928 2.42067 8.48961 2.87974C9.48064 3.79546 10.5715 4.93707 11.2234 5.69765L11.9827 5.04686C11.3044 4.25552 10.1865 3.08609 9.16827 2.14528C8.66048 1.67607 8.16511 1.25217 7.7546 0.959335C7.55158 0.814516 7.3507 0.688209 7.168 0.606726C7.0769 0.5661 6.97153 0.528005 6.86022 0.510401C6.75295 0.493433 6.59193 0.487976 6.42985 0.56902L6.87706 1.46345ZM6.96029 1.40892C6.93927 1.42659 6.91169 1.44613 6.87706 1.46345L6.42984 0.569022C6.38509 0.591397 6.34754 0.617611 6.3167 0.643547L6.96029 1.40892ZM6.8083 0.555951C6.65278 0.499793 6.50537 0.513274 6.40262 0.535282C6.29647 0.558018 6.19639 0.598784 6.10873 0.642102C5.93354 0.728668 5.74423 0.857634 5.55432 1.00384C5.17088 1.29905 4.71472 1.71969 4.24774 2.18227C3.31026 3.11091 2.2823 4.25551 1.61804 5.03047L2.3773 5.68126C3.03125 4.91832 4.03997 3.79564 4.95149 2.89272C5.409 2.43952 5.83042 2.0533 6.16436 1.79621C6.33314 1.66627 6.46248 1.58273 6.55172 1.53862C6.59628 1.51661 6.61486 1.5125 6.61206 1.5131C6.60951 1.51365 6.59541 1.51652 6.57232 1.51622C6.54881 1.5159 6.51213 1.5122 6.46868 1.49651L6.8083 0.555951ZM1.49767 5.35587V8.68143H2.49767V5.35587H1.49767ZM1.55046 8.45783L0.552786 10.4532L1.44721 10.9004L2.44488 8.90504L1.55046 8.45783ZM0.742753 11.1055C2.03274 11.8795 4.99346 14.2675 6.33337 15.3841L6.97355 14.6159C5.65301 13.5154 2.62771 11.0703 1.25725 10.248L0.742753 11.1055ZM7.15286 15.0244C7.15314 15.0186 7.15342 15.0129 7.1537 15.0072L6.15488 14.9586C6.1546 14.9643 6.15433 14.97 6.15405 14.9756L7.15286 15.0244ZM12.3435 10.2644C10.9869 11.0783 7.68026 13.4772 6.33422 14.5988L6.97436 15.367C8.28986 14.2709 11.5546 11.9039 12.8579 11.1219L12.3435 10.2644Z" fill="#615649"/>
<path d="M9.97902 7.86733C7.31857 1.48225 4.65812 5.20688 3.66045 7.86733L6.65345 10.1952L9.97902 7.86733Z" stroke="#615649"/>
</svg>
