<svg width="16" height="18" viewBox="0 0 16 18" fill="none" xmlns="http://www.w3.org/2000/svg">
<path d="M5.48886 5.90698C0.955527 4.34419 0.711083 8.51163 1.15553 10.7907C1.4222 9.22791 2.82219 8.4031 3.48885 8.18605C4.55552 8.44651 6.15552 9.81395 6.82218 10.4651V11.7674L5.82218 13.0698V16L7.15552 14.3721H7.82218L9.15552 16V13.0698L8.15552 11.7674V10.4651L11.4889 8.18605C13.0889 7.92558 14.1555 9.81395 14.4889 10.7907C15.2889 5.5814 11.7111 5.36434 9.82218 5.90698L8.15552 8.18605V5.25581H9.48885L7.48885 2L5.82218 5.25581H6.82218V7.53488L5.48886 5.90698Z" stroke="#615649"/>
</svg>
