<svg width="14" height="16" viewBox="0 0 14 16" fill="none" xmlns="http://www.w3.org/2000/svg">
<path d="M7 1L7.24948 0.566689L7 0.423047L6.75052 0.566689L7 1ZM1 4.45455L0.750518 4.02123L0.5 4.16547V4.45455H1ZM13 4.45455H13.5V4.16547L13.2495 4.02123L13 4.45455ZM13 10L13.4472 10.2236L13.5 10.118V10H13ZM7 15L6.7931 15.4552L6.97486 15.5378L7.16353 15.4725L7 15ZM7 3.36363L7.2507 2.93102L7 2.78574L6.74931 2.93102L7 3.36363ZM3.12903 5.60684L2.87834 5.17423L2.62903 5.3187V5.60684H3.12903ZM10.871 5.60684H11.371V5.3187L11.1217 5.17423L10.871 5.60684ZM10.871 9.33333L11.3168 9.55967L11.371 9.45298V9.33333H10.871ZM7 12.4545L6.79199 12.9092L6.97472 12.9928L7.16448 12.9267L7 12.4545ZM6.75052 0.566689L0.750518 4.02123L1.24948 4.88786L7.24948 1.43331L6.75052 0.566689ZM13.2495 4.02123L7.24948 0.566689L6.75052 1.43331L12.7505 4.88786L13.2495 4.02123ZM13.5 6.66667V4.45455H12.5V6.66667H13.5ZM13.5 10V6.66667H12.5V10H13.5ZM7.16353 15.4725C10.2247 14.4131 12.3868 12.3444 13.4472 10.2236L12.5528 9.77639C11.6132 11.6556 9.65922 13.5506 6.83647 14.5275L7.16353 15.4725ZM0.5 9.18182C0.5 9.93575 0.804037 10.6499 1.24436 11.2897C1.68578 11.9311 2.28539 12.5294 2.9317 13.0629C4.22371 14.1294 5.76391 14.9874 6.7931 15.4552L7.2069 14.5448C6.23609 14.1035 4.77629 13.2888 3.5683 12.2917C2.96461 11.7934 2.43922 11.262 2.06814 10.7228C1.69596 10.182 1.5 9.66425 1.5 9.18182H0.5ZM0.5 4.45455V9.18182H1.5V4.45455H0.5ZM6.74931 2.93102L2.87834 5.17423L3.37973 6.03945L7.2507 3.79624L6.74931 2.93102ZM11.1217 5.17423L7.2507 2.93102L6.74931 3.79624L10.6203 6.03945L11.1217 5.17423ZM11.371 9.33333V5.60684H10.371V9.33333H11.371ZM7.16448 12.9267C9.17925 12.2249 10.7563 10.6637 11.3168 9.55967L10.4251 9.10699C9.98663 9.97073 8.6168 11.3619 6.83553 11.9824L7.16448 12.9267ZM2.62903 8.6765C2.62903 9.21278 2.84367 9.71047 3.13967 10.1434C3.43673 10.5779 3.83659 10.9781 4.26113 11.3309C5.10955 12.0357 6.11752 12.6006 6.79199 12.9092L7.20801 11.9999C6.59216 11.7181 5.66465 11.1968 4.90017 10.5617C4.51826 10.2444 4.19231 9.9112 3.96517 9.57899C3.73698 9.24524 3.62903 8.94306 3.62903 8.6765H2.62903ZM2.62903 5.60684V8.6765H3.62903V5.60684H2.62903Z" fill="#615649"/>
</svg>
