<svg width="8" height="14" viewBox="0 0 8 14" fill="none" xmlns="http://www.w3.org/2000/svg">
<path fill-rule="evenodd" clip-rule="evenodd" d="M4.09036 0L1.07585 3.68441L1.86488 8.94465H0V10.5808H2.9996V11.7455C2.70299 11.8528 2.4785 11.9958 2.36236 12.196C2.20012 12.4757 2.30247 12.7542 2.44509 12.9501C2.58646 13.1443 2.80463 13.3181 3.02348 13.461C3.24679 13.6069 3.49189 13.734 3.70692 13.8296L4.09036 14V13.3077C4.90844 12.9441 6.16282 12.3806 4.63575 11.9442V10.3081H7.63535V9.21734H5.72651L6.54458 3.76352L4.09036 1.03661V0ZM1.65106 3.84263L3.54498 1.52784V10.0354H0.545382V9.49003H2.49817L1.65106 3.84263ZM3.54498 12.1499V13.1392C3.46888 13.0965 3.39362 13.0514 3.32169 13.0044C3.12299 12.8746 2.96962 12.7439 2.88602 12.6291C2.80548 12.5185 2.82661 12.4824 2.83366 12.4704L2.83411 12.4697C2.86211 12.4214 2.97813 12.3119 3.34721 12.2064L3.54498 12.1499Z" fill="#615649"/>
</svg>
