<svg width="60" height="24" viewBox="0 0 60 24" fill="none" xmlns="http://www.w3.org/2000/svg">
<path fill-rule="evenodd" clip-rule="evenodd" d="M38 2.89329L34.8494 10.0379L25.2124 10.0379L22 2.89329C22.1424 2.96133 22.3212 3.08152 22.5267 3.21956C23.0938 3.60063 23.8632 4.11763 24.625 4.04828C24.4603 4.9143 24.8911 6.10543 26.8185 5.96372C27.4775 5.70785 28.4371 4.77097 27.0039 3.07043C27.7452 2.81456 29.3514 1.84226 29.8456 7.12884e-07C30.2368 0.866019 31.4023 2.69253 32.9344 3.07043C32.3372 3.85772 31.6124 5.53858 33.4904 5.96372C34.2934 5.78658 35.6896 5.0544 34.8494 3.5428C35.6319 3.50344 37.3575 3.31842 38 2.89329ZM32.3428 7.06681L30.0505 5.04674L27.8171 7.06681L30.0505 9.01205L32.3428 7.06681Z" fill="url(#paint0_angular)"/>
<path d="M5.46 23.1C5.10667 23.1 4.79667 22.9967 4.53 22.79C4.27 22.5767 3.98 22.1967 3.66 21.65L2.66 19.95H1.96V23H1.06V17.6C1.06 17.26 1.01334 17.01 0.920004 16.85C0.82667 16.6833 0.640004 16.6 0.360004 16.6H0.160004V16.4H2.76C3.39334 16.4 3.96667 16.5267 4.48 16.78C5 17.0267 5.26 17.5 5.26 18.2C5.26 19.0867 4.72667 19.6533 3.66 19.9L4.71 21.65C4.95667 22.0633 5.17667 22.3533 5.37 22.52C5.57 22.68 5.8 22.7733 6.06 22.8V23C6 23.0267 5.91334 23.05 5.8 23.07C5.69334 23.09 5.58 23.1 5.46 23.1ZM2.71 19.6C2.91667 19.6 3.14 19.55 3.38 19.45C3.62667 19.35 3.83334 19.1933 4 18.98C4.17334 18.7667 4.26 18.5067 4.26 18.2C4.26 17.8733 4.17334 17.6033 4 17.39C3.83334 17.17 3.62667 17.01 3.38 16.91C3.14 16.8033 2.91667 16.75 2.71 16.75C2.47667 16.75 2.22667 16.7833 1.96 16.85V19.5C2.22667 19.5667 2.47667 19.6 2.71 19.6Z" fill="#FF8A00"/>
<path d="M16.5473 20.27L14.8473 17.7C14.6739 17.4533 14.5273 17.26 14.4073 17.12C14.2873 16.98 14.1439 16.8633 13.9773 16.77C13.8173 16.67 13.6239 16.6133 13.3973 16.6V16.4H14.2973C14.6306 16.4 14.9106 16.5 15.1373 16.7C15.3639 16.8933 15.5839 17.16 15.7973 17.5L17.2473 19.75L19.3373 16.4H19.7873L17.4473 20.2V23H16.5473V20.27Z" fill="#FF8A00"/>
<path d="M25.3177 23.05C24.9977 23.05 24.681 22.9633 24.3677 22.79C24.0543 22.61 23.8043 22.2633 23.6177 21.75L23.3677 21.1H20.5677L19.7677 23H19.3177L22.1177 16.4H22.4177L24.6177 21.75C24.7843 22.1367 24.941 22.4033 25.0877 22.55C25.2343 22.69 25.4443 22.7733 25.7177 22.8V23C25.5977 23.0333 25.4643 23.05 25.3177 23.05ZM20.7177 20.7H23.1677L21.9677 17.8L20.7177 20.7Z" fill="#FF8A00"/>
<path d="M26.5553 17.6C26.5553 17.26 26.5086 17.01 26.4153 16.85C26.322 16.6833 26.1353 16.6 25.8553 16.6H25.6553V16.4H26.5553C26.802 16.4 26.9853 16.4333 27.1053 16.5C27.232 16.56 27.322 16.6733 27.3753 16.84C27.4286 17.0067 27.4553 17.26 27.4553 17.6V22.6H31.0053V23H26.5553V17.6Z" fill="#FF8A00"/>
<path d="M31.9959 17.6C31.9959 17.26 31.9493 17.01 31.8559 16.85C31.7626 16.6833 31.5759 16.6 31.2959 16.6H31.0959V16.4H33.6959C34.4226 16.4 35.0526 16.52 35.5859 16.76C36.1259 17 36.3959 17.4633 36.3959 18.15C36.3959 18.4633 36.2893 18.7467 36.0759 19C35.8626 19.2533 35.5359 19.4533 35.0959 19.6C35.7093 19.7 36.1359 19.8833 36.3759 20.15C36.6226 20.41 36.7459 20.76 36.7459 21.2C36.7459 21.8733 36.4793 22.3433 35.9459 22.61C35.4193 22.87 34.7693 23 33.9959 23H31.9959V17.6ZM33.8459 19.45C34.1193 19.45 34.3759 19.4 34.6159 19.3C34.8626 19.1933 35.0626 19.04 35.2159 18.84C35.3693 18.6333 35.4459 18.3867 35.4459 18.1C35.4459 17.8 35.3559 17.55 35.1759 17.35C34.9959 17.1433 34.7659 16.9933 34.4859 16.9C34.2126 16.8 33.9326 16.75 33.6459 16.75C33.4126 16.75 33.1626 16.7833 32.8959 16.85V19.45H33.8459ZM33.8459 22.65C34.4526 22.65 34.9193 22.53 35.2459 22.29C35.5793 22.05 35.7459 21.7033 35.7459 21.25C35.7459 20.7967 35.5826 20.45 35.2559 20.21C34.9359 19.97 34.4659 19.85 33.8459 19.85H32.8959V22.51C33.2159 22.6033 33.5326 22.65 33.8459 22.65Z" fill="#FF8A00"/>
<path d="M40.6881 23.1C40.0481 23.1 39.5414 22.9933 39.1681 22.78C38.7947 22.56 38.5281 22.2367 38.3681 21.81C38.2147 21.3833 38.1381 20.83 38.1381 20.15V17.6C38.1381 17.26 38.0914 17.01 37.9981 16.85C37.9047 16.6833 37.7181 16.6 37.4381 16.6H37.2381V16.4H38.1381C38.3847 16.4 38.5681 16.4333 38.6881 16.5C38.8147 16.56 38.9047 16.6733 38.9581 16.84C39.0114 17.0067 39.0381 17.26 39.0381 17.6V20.45C39.0381 21.19 39.1747 21.75 39.4481 22.13C39.7214 22.51 40.1747 22.7 40.8081 22.7C41.3147 22.7 41.7147 22.61 42.0081 22.43C42.3081 22.25 42.5214 21.9767 42.6481 21.61C42.7747 21.2433 42.8381 20.7567 42.8381 20.15V16.4H43.2381V20.15C43.2381 20.8433 43.1647 21.4033 43.0181 21.83C42.8714 22.25 42.6114 22.5667 42.2381 22.78C41.8714 22.9933 41.3547 23.1 40.6881 23.1Z" fill="#FF8A00"/>
<path d="M45.8533 23C45.6066 23 45.42 22.97 45.2933 22.91C45.1733 22.8433 45.0866 22.7267 45.0333 22.56C44.98 22.3933 44.9533 22.14 44.9533 21.8V16.4H45.8533V21.8C45.8533 22.14 45.9 22.3933 45.9933 22.56C46.0866 22.72 46.2733 22.8 46.5533 22.8H46.7533V23H45.8533Z" fill="#FF8A00"/>
<path d="M48.0248 17.6C48.0248 17.26 47.9782 17.01 47.8848 16.85C47.7915 16.6833 47.6048 16.6 47.3248 16.6H47.1248V16.4H48.0248C48.2715 16.4 48.4548 16.4333 48.5748 16.5C48.7015 16.56 48.7915 16.6733 48.8448 16.84C48.8982 17.0067 48.9248 17.26 48.9248 17.6V22.6H52.4748V23H48.0248V17.6Z" fill="#FF8A00"/>
<path d="M53.4655 17.6C53.4655 17.26 53.4188 17.01 53.3255 16.85C53.2321 16.6833 53.0455 16.6 52.7655 16.6H52.5655V16.4H55.1855C56.4788 16.4 57.4555 16.6867 58.1155 17.26C58.7821 17.8333 59.1155 18.6333 59.1155 19.66C59.1155 20.32 58.9755 20.9033 58.6955 21.41C58.4155 21.91 57.9988 22.3 57.4455 22.58C56.8988 22.86 56.2321 23 55.4455 23H53.4655V17.6ZM55.4155 22.65C55.9088 22.65 56.3521 22.53 56.7455 22.29C57.1455 22.0433 57.4588 21.7 57.6855 21.26C57.9121 20.8133 58.0255 20.2933 58.0255 19.7C58.0255 19.12 57.9121 18.6067 57.6855 18.16C57.4655 17.7133 57.1555 17.3667 56.7555 17.12C56.3555 16.8733 55.9021 16.75 55.3955 16.75C55.0755 16.75 54.7421 16.8033 54.3955 16.91V22.52C54.7688 22.6067 55.1088 22.65 55.4155 22.65Z" fill="#FF8A00"/>
<path d="M12.9908 18.5453C13.5529 20.302 13.5427 23.6736 9.00467 23.1064C10.5633 23.2086 13.5427 22.4395 12.9908 18.5453Z" fill="#33015A"/>
<path d="M10.3462 18.0471C9.57961 17.3878 9.65626 16.0987 9.79041 15.5366C9.62177 16.8397 10.7806 18.0854 11.381 18.5453C11.841 19.2199 11.7132 20.2318 11.5918 20.6534C11.7145 19.3655 10.8125 18.3792 10.3462 18.0471Z" fill="#430463"/>
<path d="M10.0203 15C10.097 15.5366 10.4918 16.7554 11.4576 17.338C12.4235 17.9206 11.8601 17.6446 11.4576 17.4338C11.7069 17.6729 12.1378 18.1949 12.2486 18.6918C12.2275 18.2272 12.1874 17.6476 12.1284 17.5296C12.8949 18.0279 13.9681 19.6454 12.1284 22.129C11.4832 22.8061 9.75972 23.8308 8.02729 22.5123C8.90883 22.985 10.8712 23.206 11.6684 20.3084C11.7132 19.874 11.6991 18.898 11.2852 18.4687C10.525 17.9129 9.20779 16.4411 10.0203 15Z" fill="#871392"/>
<path d="M10.4994 22.0715C8.56767 23.252 7.39483 21.8224 7.04988 20.96L8.16139 21.899C8.93304 22.405 10.0416 22.2248 10.4994 22.0715Z" fill="#33015A"/>
<path d="M8.94714 19.1394C9.7137 18.4802 9.67538 17.5616 9.56039 17.1847C9.68304 17.5833 8.58942 18.9733 8.02727 19.6185C7.73598 20.0938 7.98256 20.7364 8.14226 20.9983C8.26363 21.3561 8.44888 21.8569 8.21891 20.9983C7.98894 20.1398 8.60858 19.4013 8.94714 19.1394Z" fill="#33015A"/>
<path d="M8.67887 19.0053C6.87745 20.8259 9.34961 22.1482 9.50292 22.2632C7.89315 22.4318 7.19685 21.3497 7.04993 20.7875C6.80463 19.4997 7.52264 18.705 7.91231 18.4687C7.72833 18.9286 7.759 19.2991 7.79732 19.4269C7.87398 18.921 8.31475 18.4878 8.52556 18.3345C9.24612 17.8746 9.47737 17.1975 9.50292 16.9164C9.77888 18.0356 9.06854 18.7753 8.67887 19.0053Z" fill="#871392"/>
<defs>
<radialGradient id="paint0_angular" cx="0" cy="0" r="1" gradientUnits="userSpaceOnUse" gradientTransform="translate(30 5.01897) rotate(90) scale(5.01897 8)">
<stop offset="0.208333" stop-color="#7E1287"/>
<stop offset="0.78125" stop-color="#33015A"/>
</radialGradient>
</defs>
</svg>
