<svg width="60" height="23" viewBox="0 0 60 23" fill="none" xmlns="http://www.w3.org/2000/svg">
<path fill-rule="evenodd" clip-rule="evenodd" d="M47 6.39702L40.0341 22.1938L18.7267 22.1938L11.6242 6.39703C11.9389 6.54746 12.3344 6.81321 12.7886 7.1184C14.0425 7.96095 15.7436 9.10404 17.4281 8.9507C17.0639 10.8655 18.0164 13.499 22.2779 13.1857C23.7348 12.62 25.8565 10.5486 22.6877 6.78868C24.3267 6.22296 27.8779 4.07321 28.9706 1.57618e-06C29.8357 1.91476 32.4126 5.95315 35.7999 6.78868C34.4796 8.52937 32.877 12.2457 37.0292 13.1857C38.8048 12.794 41.8917 11.1752 40.0341 7.83309C41.7642 7.74606 45.5795 7.337 47 6.39702ZM35.492 15.6247L30.4238 11.1583L25.4856 15.6247L30.4238 19.9256L35.492 15.6247Z" fill="#191B26"/>
<path d="M5.46 14.1C5.10667 14.1 4.79667 13.9967 4.53 13.79C4.27 13.5767 3.98 13.1967 3.66 12.65L2.66 10.95H1.96V14H1.06V8.6C1.06 8.26 1.01333 8.01 0.92 7.85C0.826667 7.68333 0.64 7.6 0.36 7.6H0.16V7.4H2.76C3.39333 7.4 3.96667 7.52667 4.48 7.78C5 8.02667 5.26 8.5 5.26 9.2C5.26 10.0867 4.72667 10.6533 3.66 10.9L4.71 12.65C4.95667 13.0633 5.17667 13.3533 5.37 13.52C5.57 13.68 5.8 13.7733 6.06 13.8V14C6 14.0267 5.91333 14.05 5.8 14.07C5.69333 14.09 5.58 14.1 5.46 14.1ZM2.71 10.6C2.91667 10.6 3.14 10.55 3.38 10.45C3.62667 10.35 3.83333 10.1933 4 9.98C4.17333 9.76667 4.26 9.50667 4.26 9.2C4.26 8.87333 4.17333 8.60333 4 8.39C3.83333 8.17 3.62667 8.01 3.38 7.91C3.14 7.80333 2.91667 7.75 2.71 7.75C2.47667 7.75 2.22667 7.78333 1.96 7.85V10.5C2.22667 10.5667 2.47667 10.6 2.71 10.6ZM16.5473 11.27L14.8473 8.7C14.6739 8.45333 14.5273 8.26 14.4073 8.12C14.2873 7.98 14.1439 7.86333 13.9773 7.77C13.8173 7.67 13.6239 7.61333 13.3973 7.6V7.4H14.2973C14.6306 7.4 14.9106 7.5 15.1373 7.7C15.3639 7.89333 15.5839 8.16 15.7973 8.5L17.2473 10.75L19.3373 7.4H19.7873L17.4473 11.2V14H16.5473V11.27ZM25.3177 14.05C24.9977 14.05 24.681 13.9633 24.3677 13.79C24.0543 13.61 23.8043 13.2633 23.6177 12.75L23.3677 12.1H20.5677L19.7677 14H19.3177L22.1177 7.4H22.4177L24.6177 12.75C24.7843 13.1367 24.941 13.4033 25.0877 13.55C25.2343 13.69 25.4443 13.7733 25.7177 13.8V14C25.5977 14.0333 25.4643 14.05 25.3177 14.05ZM20.7177 11.7H23.1677L21.9677 8.8L20.7177 11.7ZM26.5553 8.6C26.5553 8.26 26.5086 8.01 26.4153 7.85C26.322 7.68333 26.1353 7.6 25.8553 7.6H25.6553V7.4H26.5553C26.802 7.4 26.9853 7.43333 27.1053 7.5C27.232 7.56 27.322 7.67333 27.3753 7.84C27.4286 8.00667 27.4553 8.26 27.4553 8.6V13.6H31.0053V14H26.5553V8.6ZM31.9959 8.6C31.9959 8.26 31.9493 8.01 31.8559 7.85C31.7626 7.68333 31.5759 7.6 31.2959 7.6H31.0959V7.4H33.6959C34.4226 7.4 35.0526 7.52 35.5859 7.76C36.1259 8 36.3959 8.46333 36.3959 9.15C36.3959 9.46333 36.2893 9.74667 36.0759 10C35.8626 10.2533 35.5359 10.4533 35.0959 10.6C35.7093 10.7 36.1359 10.8833 36.3759 11.15C36.6226 11.41 36.7459 11.76 36.7459 12.2C36.7459 12.8733 36.4793 13.3433 35.9459 13.61C35.4193 13.87 34.7693 14 33.9959 14H31.9959V8.6ZM33.8459 10.45C34.1193 10.45 34.3759 10.4 34.6159 10.3C34.8626 10.1933 35.0626 10.04 35.2159 9.84C35.3693 9.63333 35.4459 9.38667 35.4459 9.1C35.4459 8.8 35.3559 8.55 35.1759 8.35C34.9959 8.14333 34.7659 7.99333 34.4859 7.9C34.2126 7.8 33.9326 7.75 33.6459 7.75C33.4126 7.75 33.1626 7.78333 32.8959 7.85V10.45H33.8459ZM33.8459 13.65C34.4526 13.65 34.9193 13.53 35.2459 13.29C35.5793 13.05 35.7459 12.7033 35.7459 12.25C35.7459 11.7967 35.5826 11.45 35.2559 11.21C34.9359 10.97 34.4659 10.85 33.8459 10.85H32.8959V13.51C33.2159 13.6033 33.5326 13.65 33.8459 13.65ZM40.688 14.1C40.048 14.1 39.5414 13.9933 39.168 13.78C38.7947 13.56 38.528 13.2367 38.368 12.81C38.2147 12.3833 38.138 11.83 38.138 11.15V8.6C38.138 8.26 38.0914 8.01 37.998 7.85C37.9047 7.68333 37.718 7.6 37.438 7.6H37.238V7.4H38.138C38.3847 7.4 38.568 7.43333 38.688 7.5C38.8147 7.56 38.9047 7.67333 38.958 7.84C39.0114 8.00667 39.038 8.26 39.038 8.6V11.45C39.038 12.19 39.1747 12.75 39.448 13.13C39.7214 13.51 40.1747 13.7 40.808 13.7C41.3147 13.7 41.7147 13.61 42.008 13.43C42.308 13.25 42.5214 12.9767 42.648 12.61C42.7747 12.2433 42.838 11.7567 42.838 11.15V7.4H43.238V11.15C43.238 11.8433 43.1647 12.4033 43.018 12.83C42.8714 13.25 42.6114 13.5667 42.238 13.78C41.8714 13.9933 41.3547 14.1 40.688 14.1ZM45.8533 14C45.6066 14 45.4199 13.97 45.2933 13.91C45.1733 13.8433 45.0866 13.7267 45.0333 13.56C44.9799 13.3933 44.9533 13.14 44.9533 12.8V7.4H45.8533V12.8C45.8533 13.14 45.8999 13.3933 45.9933 13.56C46.0866 13.72 46.2733 13.8 46.5533 13.8H46.7533V14H45.8533ZM48.0248 8.6C48.0248 8.26 47.9782 8.01 47.8848 7.85C47.7915 7.68333 47.6048 7.6 47.3248 7.6H47.1248V7.4H48.0248C48.2715 7.4 48.4548 7.43333 48.5748 7.5C48.7015 7.56 48.7915 7.67333 48.8448 7.84C48.8982 8.00667 48.9248 8.26 48.9248 8.6V13.6H52.4748V14H48.0248V8.6ZM53.4655 8.6C53.4655 8.26 53.4188 8.01 53.3255 7.85C53.2321 7.68333 53.0455 7.6 52.7655 7.6H52.5655V7.4H55.1855C56.4788 7.4 57.4555 7.68667 58.1155 8.26C58.7821 8.83333 59.1155 9.63333 59.1155 10.66C59.1155 11.32 58.9755 11.9033 58.6955 12.41C58.4155 12.91 57.9988 13.3 57.4455 13.58C56.8988 13.86 56.2321 14 55.4455 14H53.4655V8.6ZM55.4155 13.65C55.9088 13.65 56.3521 13.53 56.7455 13.29C57.1455 13.0433 57.4588 12.7 57.6855 12.26C57.9121 11.8133 58.0255 11.2933 58.0255 10.7C58.0255 10.12 57.9121 9.60667 57.6855 9.16C57.4655 8.71333 57.1555 8.36667 56.7555 8.12C56.3555 7.87333 55.9021 7.75 55.3955 7.75C55.0755 7.75 54.7421 7.80333 54.3955 7.91V13.52C54.7688 13.6067 55.1088 13.65 55.4155 13.65Z" fill="#FF8A00"/>
<path d="M12.9908 9.54535C13.5529 11.302 13.5427 14.6736 9.00468 14.1064C10.5634 14.2086 13.5427 13.4395 12.9908 9.54535Z" fill="#33015A"/>
<path d="M10.3462 9.04707C9.57961 8.38783 9.65626 7.09873 9.79041 6.53659C9.62177 7.83974 10.7806 9.0854 11.381 9.54534C11.841 10.2199 11.7132 11.2318 11.5918 11.6534C11.7145 10.3656 10.8125 9.37925 10.3462 9.04707Z" fill="#430463"/>
<path d="M10.0204 6C10.097 6.53659 10.4918 7.75542 11.4577 8.33801C12.4235 8.92059 11.8601 8.64463 11.4577 8.43383C11.7069 8.67294 12.1378 9.19489 12.2486 9.69179C12.2275 9.22717 12.1874 8.64763 12.1284 8.52965C12.895 9.02791 13.9681 10.6454 12.1284 13.129C11.4832 13.8061 9.75972 14.8308 8.0273 13.5123C8.90884 13.985 10.8712 14.206 11.6685 11.3084C11.7132 10.874 11.6991 9.89796 11.2852 9.46868C10.525 8.91293 9.2078 7.44113 10.0204 6Z" fill="#871392"/>
<path d="M10.4994 13.0715C8.56767 14.252 7.39483 12.8224 7.04988 11.96L8.16139 12.899C8.93304 13.405 10.0416 13.2248 10.4994 13.0715Z" fill="#33015A"/>
<path d="M8.94714 10.1394C9.7137 9.48018 9.67538 8.56158 9.56039 8.18469C9.68304 8.5833 8.58942 9.97333 8.02727 10.6185C7.73598 11.0938 7.98256 11.7364 8.14226 11.9983C8.26363 12.3561 8.44888 12.8569 8.21891 11.9983C7.98894 11.1398 8.60858 10.4013 8.94714 10.1394Z" fill="#33015A"/>
<path d="M8.67887 10.0053C6.87745 11.8258 9.34961 13.1482 9.50292 13.2631C7.89315 13.4318 7.19685 12.3497 7.04993 11.7875C6.80463 10.4997 7.52264 9.70502 7.91231 9.46867C7.72833 9.9286 7.759 10.2991 7.79732 10.4269C7.87398 9.92094 8.31475 9.48783 8.52556 9.33452C9.24612 8.87458 9.47737 8.19745 9.50292 7.91638C9.77888 9.03556 9.06854 9.77529 8.67887 10.0053Z" fill="#871392"/>
</svg>
