<svg width="60" height="9" viewBox="0 0 60 9" fill="none" xmlns="http://www.w3.org/2000/svg">
<path d="M5.46 8.09999C5.10667 8.09999 4.79667 7.99666 4.53 7.78999C4.27 7.57666 3.98 7.19666 3.66 6.64999L2.66 4.94999H1.96V7.99999H1.06V2.59999C1.06 2.25999 1.01334 2.00999 0.920004 1.84999C0.82667 1.68333 0.640004 1.59999 0.360004 1.59999H0.160004V1.39999H2.76C3.39334 1.39999 3.96667 1.52666 4.48 1.77999C5 2.02666 5.26 2.49999 5.26 3.19999C5.26 4.08666 4.72667 4.65333 3.66 4.89999L4.71 6.64999C4.95667 7.06333 5.17667 7.35333 5.37 7.51999C5.57 7.67999 5.8 7.77333 6.06 7.79999V7.99999C6 8.02666 5.91334 8.04999 5.8 8.06999C5.69334 8.08999 5.58 8.09999 5.46 8.09999ZM2.71 4.59999C2.91667 4.59999 3.14 4.54999 3.38 4.44999C3.62667 4.34999 3.83334 4.19333 4 3.97999C4.17334 3.76666 4.26 3.50666 4.26 3.19999C4.26 2.87333 4.17334 2.60333 4 2.38999C3.83334 2.16999 3.62667 2.00999 3.38 1.90999C3.14 1.80333 2.91667 1.74999 2.71 1.74999C2.47667 1.74999 2.22667 1.78333 1.96 1.84999V4.49999C2.22667 4.56666 2.47667 4.59999 2.71 4.59999Z" fill="#FF8A00"/>
<path d="M16.5473 5.26999L14.8473 2.69999C14.6739 2.45333 14.5273 2.25999 14.4073 2.11999C14.2873 1.97999 14.1439 1.86333 13.9773 1.76999C13.8173 1.66999 13.6239 1.61333 13.3973 1.59999V1.39999H14.2973C14.6306 1.39999 14.9106 1.49999 15.1373 1.69999C15.3639 1.89333 15.5839 2.15999 15.7973 2.49999L17.2473 4.74999L19.3373 1.39999H19.7873L17.4473 5.19999V7.99999H16.5473V5.26999Z" fill="#FF8A00"/>
<path d="M25.3177 8.04999C24.9977 8.04999 24.681 7.96333 24.3677 7.78999C24.0543 7.60999 23.8043 7.26333 23.6177 6.74999L23.3677 6.09999H20.5677L19.7677 7.99999H19.3177L22.1177 1.39999H22.4177L24.6177 6.74999C24.7843 7.13666 24.941 7.40333 25.0877 7.54999C25.2343 7.68999 25.4443 7.77333 25.7177 7.79999V7.99999C25.5977 8.03333 25.4643 8.04999 25.3177 8.04999ZM20.7177 5.69999H23.1677L21.9677 2.79999L20.7177 5.69999Z" fill="#FF8A00"/>
<path d="M26.5553 2.59999C26.5553 2.25999 26.5086 2.00999 26.4153 1.84999C26.322 1.68333 26.1353 1.59999 25.8553 1.59999H25.6553V1.39999H26.5553C26.802 1.39999 26.9853 1.43333 27.1053 1.49999C27.232 1.55999 27.322 1.67333 27.3753 1.83999C27.4286 2.00666 27.4553 2.25999 27.4553 2.59999V7.59999H31.0053V7.99999H26.5553V2.59999Z" fill="#FF8A00"/>
<path d="M31.9959 2.59999C31.9959 2.25999 31.9493 2.00999 31.8559 1.84999C31.7626 1.68333 31.5759 1.59999 31.2959 1.59999H31.0959V1.39999H33.6959C34.4226 1.39999 35.0526 1.51999 35.5859 1.75999C36.1259 1.99999 36.3959 2.46333 36.3959 3.14999C36.3959 3.46333 36.2893 3.74666 36.0759 3.99999C35.8626 4.25333 35.5359 4.45333 35.0959 4.59999C35.7093 4.69999 36.1359 4.88333 36.3759 5.14999C36.6226 5.40999 36.7459 5.75999 36.7459 6.19999C36.7459 6.87333 36.4793 7.34333 35.9459 7.60999C35.4193 7.86999 34.7693 7.99999 33.9959 7.99999H31.9959V2.59999ZM33.8459 4.44999C34.1193 4.44999 34.3759 4.39999 34.6159 4.29999C34.8626 4.19333 35.0626 4.03999 35.2159 3.83999C35.3693 3.63333 35.4459 3.38666 35.4459 3.09999C35.4459 2.79999 35.3559 2.54999 35.1759 2.34999C34.9959 2.14333 34.7659 1.99333 34.4859 1.89999C34.2126 1.79999 33.9326 1.74999 33.6459 1.74999C33.4126 1.74999 33.1626 1.78333 32.8959 1.84999V4.44999H33.8459ZM33.8459 7.64999C34.4526 7.64999 34.9193 7.52999 35.2459 7.28999C35.5793 7.04999 35.7459 6.70333 35.7459 6.24999C35.7459 5.79666 35.5826 5.44999 35.2559 5.20999C34.9359 4.96999 34.4659 4.84999 33.8459 4.84999H32.8959V7.50999C33.2159 7.60333 33.5326 7.64999 33.8459 7.64999Z" fill="#FF8A00"/>
<path d="M40.6881 8.09999C40.0481 8.09999 39.5414 7.99333 39.1681 7.77999C38.7947 7.55999 38.5281 7.23666 38.3681 6.80999C38.2147 6.38333 38.1381 5.82999 38.1381 5.14999V2.59999C38.1381 2.25999 38.0914 2.00999 37.9981 1.84999C37.9047 1.68333 37.7181 1.59999 37.4381 1.59999H37.2381V1.39999H38.1381C38.3847 1.39999 38.5681 1.43333 38.6881 1.49999C38.8147 1.55999 38.9047 1.67333 38.9581 1.83999C39.0114 2.00666 39.0381 2.25999 39.0381 2.59999V5.44999C39.0381 6.18999 39.1747 6.74999 39.4481 7.12999C39.7214 7.50999 40.1747 7.69999 40.8081 7.69999C41.3147 7.69999 41.7147 7.60999 42.0081 7.42999C42.3081 7.24999 42.5214 6.97666 42.6481 6.60999C42.7747 6.24333 42.8381 5.75666 42.8381 5.14999V1.39999H43.2381V5.14999C43.2381 5.84333 43.1647 6.40333 43.0181 6.82999C42.8714 7.24999 42.6114 7.56666 42.2381 7.77999C41.8714 7.99333 41.3547 8.09999 40.6881 8.09999Z" fill="#FF8A00"/>
<path d="M45.8533 7.99999C45.6066 7.99999 45.42 7.96999 45.2933 7.90999C45.1733 7.84333 45.0866 7.72666 45.0333 7.55999C44.98 7.39333 44.9533 7.13999 44.9533 6.79999V1.39999H45.8533V6.79999C45.8533 7.13999 45.9 7.39333 45.9933 7.55999C46.0866 7.71999 46.2733 7.79999 46.5533 7.79999H46.7533V7.99999H45.8533Z" fill="#FF8A00"/>
<path d="M48.0248 2.59999C48.0248 2.25999 47.9782 2.00999 47.8848 1.84999C47.7915 1.68333 47.6048 1.59999 47.3248 1.59999H47.1248V1.39999H48.0248C48.2715 1.39999 48.4548 1.43333 48.5748 1.49999C48.7015 1.55999 48.7915 1.67333 48.8448 1.83999C48.8982 2.00666 48.9248 2.25999 48.9248 2.59999V7.59999H52.4748V7.99999H48.0248V2.59999Z" fill="#FF8A00"/>
<path d="M53.4655 2.59999C53.4655 2.25999 53.4188 2.00999 53.3255 1.84999C53.2321 1.68333 53.0455 1.59999 52.7655 1.59999H52.5655V1.39999H55.1855C56.4788 1.39999 57.4555 1.68666 58.1155 2.25999C58.7821 2.83333 59.1155 3.63333 59.1155 4.65999C59.1155 5.31999 58.9755 5.90333 58.6955 6.40999C58.4155 6.90999 57.9988 7.29999 57.4455 7.57999C56.8988 7.85999 56.2321 7.99999 55.4455 7.99999H53.4655V2.59999ZM55.4155 7.64999C55.9088 7.64999 56.3521 7.52999 56.7455 7.28999C57.1455 7.04333 57.4588 6.69999 57.6855 6.25999C57.9121 5.81333 58.0255 5.29333 58.0255 4.69999C58.0255 4.11999 57.9121 3.60666 57.6855 3.15999C57.4655 2.71333 57.1555 2.36666 56.7555 2.11999C56.3555 1.87333 55.9021 1.74999 55.3955 1.74999C55.0755 1.74999 54.7421 1.80333 54.3955 1.90999V7.51999C54.7688 7.60666 55.1088 7.64999 55.4155 7.64999Z" fill="#FF8A00"/>
<path d="M12.9908 3.54533C13.5529 5.30203 13.5427 8.67362 9.00467 8.10637C10.5633 8.20857 13.5427 7.43946 12.9908 3.54533Z" fill="#33015A"/>
<path d="M10.3462 3.04706C9.57961 2.38782 9.65626 1.09872 9.79041 0.536575C9.62177 1.83973 10.7806 3.08539 11.381 3.54532C11.841 4.2199 11.7132 5.23175 11.5918 5.65336C11.7145 4.36554 10.8125 3.37923 10.3462 3.04706Z" fill="#430463"/>
<path d="M10.0203 0C10.097 0.536592 10.4918 1.75542 11.4576 2.33801C12.4235 2.92059 11.8601 2.64463 11.4576 2.43383C11.7069 2.67294 12.1378 3.19489 12.2486 3.69179C12.2275 3.22717 12.1874 2.64763 12.1284 2.52965C12.8949 3.02791 13.9681 4.64535 12.1284 7.12901C11.4832 7.80614 9.75972 8.83077 8.02729 7.51229C8.90883 7.985 10.8712 8.20602 11.6684 5.30843C11.7132 4.87404 11.6991 3.89796 11.2852 3.46868C10.525 2.91293 9.20779 1.44113 10.0203 0Z" fill="#871392"/>
<path d="M10.4994 7.0715C8.56767 8.25201 7.39483 6.82237 7.04988 5.95999L8.16139 6.89903C8.93304 7.40496 10.0416 7.22482 10.4994 7.0715Z" fill="#33015A"/>
<path d="M8.94714 4.13944C9.7137 3.48019 9.67538 2.5616 9.56039 2.18471C9.68304 2.58332 8.58942 3.97335 8.02727 4.61854C7.73598 5.0938 7.98256 5.73644 8.14226 5.99834C8.26363 6.35607 8.44888 6.85689 8.21891 5.99834C7.98894 5.1398 8.60858 4.40134 8.94714 4.13944Z" fill="#33015A"/>
<path d="M8.67887 4.00527C6.87745 5.82585 9.34961 7.14817 9.50292 7.26315C7.89315 7.43179 7.19685 6.34967 7.04993 5.78752C6.80463 4.4997 7.52264 3.70504 7.91231 3.46868C7.72833 3.92862 7.759 4.29912 7.79732 4.42688C7.87398 3.92095 8.31475 3.48784 8.52556 3.33453C9.24612 2.8746 9.47737 2.19747 9.50292 1.9164C9.77888 3.03557 9.06854 3.7753 8.67887 4.00527Z" fill="#871392"/>
</svg>
